<svg id="Layer_1" data-name="Layer 1" xmlns="http://www.w3.org/2000/svg" height="64" width="64" viewBox="0 0 512 512"><defs><style>.cls-1{fill:#7fdf64;}</style></defs><path class="cls-1" d="M8.56,503.45V8.55h114l1.49,1.69a166.59,166.59,0,0,1,39.91,84c4.27,25.39,3.48,53.11-2.37,82.37a324.59,324.59,0,0,1-29.12,83.2L279,344.49a325.71,325.71,0,0,1,48.11-58.21c42.87-41,90.83-62.74,138.7-62.74A168.41,168.41,0,0,1,499.44,227l4,.81V503.45Zm148.3-23.32,21.2-36.77,24.16-41.85-80.81-46.65L97.3,396.72,62.79,456.49Zm86-73.34L271,358.08,124.69,273.59,96.57,322.3Z"/><path d="M120.31,13.55c89.76,101.39,5.44,248.2,5.44,248.2l155,89.5S352,228.54,465.85,228.54a163.24,163.24,0,0,1,32.59,3.33V498.45H13.56V13.55H120.31M244.74,413.62l33.12-57.37-155-89.49L89.74,324.13l155,89.49M159.31,485.9l23.08-40,26.66-46.18L119.58,348,93,394.23l-37.82,65.5L159.31,485.9M124.81,3.55H3.56v504.9H508.44V223.7l-8-1.63a173.91,173.91,0,0,0-34.59-3.53c-27.56,0-55,6.81-81.48,20.25-20.95,10.63-41.37,25.39-60.68,43.88a334.67,334.67,0,0,0-46.25,55.12L139.07,257.9a332.92,332.92,0,0,0,27.43-80.27c6-29.86,6.76-58.19,2.39-84.18a171.46,171.46,0,0,0-41.1-86.52l-3-3.38ZM103.4,320.47l23.12-40.05L264.2,359.91l-23.12,40L103.4,320.47Zm-33,132.79,31.2-54,21.62-37.54,72.14,41.65-21.66,37.52-19.31,33.5-84-21.1Z"/></svg>